<?xml version="1.0" encoding="UTF-8" standalone="no"?>
<svg
   width="812.95337"
   height="601.32874"
   xml:space="preserve"
   version="1.1"
   id="svg107"
   sodipodi:docname="rdm-lifecycle_and_h5rdmtoolbox.svg"
   inkscape:version="1.3 (0e150ed6c4, 2023-07-21)"
   xmlns:inkscape="http://www.inkscape.org/namespaces/inkscape"
   xmlns:sodipodi="http://sodipodi.sourceforge.net/DTD/sodipodi-0.dtd"
   xmlns="http://www.w3.org/2000/svg"
   xmlns:svg="http://www.w3.org/2000/svg"><sodipodi:namedview
     id="namedview107"
     pagecolor="#ffffff"
     bordercolor="#eeeeee"
     borderopacity="1"
     inkscape:showpageshadow="0"
     inkscape:pageopacity="0"
     inkscape:pagecheckerboard="0"
     inkscape:deskcolor="#505050"
     inkscape:zoom="0.72404811"
     inkscape:cx="540.01936"
     inkscape:cy="218.9081"
     inkscape:window-width="2400"
     inkscape:window-height="1261"
     inkscape:window-x="-9"
     inkscape:window-y="-9"
     inkscape:window-maximized="1"
     inkscape:current-layer="g107"
     showgrid="false"
     showguides="false" /><defs
     id="defs19"><clipPath
       id="clip0"><rect
         x="5"
         y="-3"
         width="1823"
         height="1949"
         id="rect1" /></clipPath><clipPath
       id="clip1"><rect
         x="454"
         y="271"
         width="304"
         height="305"
         id="rect2" /></clipPath><clipPath
       id="clip2"><rect
         x="454"
         y="271"
         width="304"
         height="305"
         id="rect3" /></clipPath><clipPath
       id="clip3"><rect
         x="454"
         y="271"
         width="304"
         height="305"
         id="rect4" /></clipPath><clipPath
       id="clip4"><rect
         x="1052"
         y="255"
         width="306"
         height="304"
         id="rect5" /></clipPath><clipPath
       id="clip5"><rect
         x="1052"
         y="255"
         width="306"
         height="304"
         id="rect6" /></clipPath><clipPath
       id="clip6"><rect
         x="1052"
         y="255"
         width="306"
         height="304"
         id="rect7" /></clipPath><clipPath
       id="clip7"><rect
         x="159"
         y="828"
         width="306"
         height="305"
         id="rect8" /></clipPath><clipPath
       id="clip8"><rect
         x="178"
         y="846"
         width="275"
         height="275"
         id="rect9" /></clipPath><clipPath
       id="clip9"><rect
         x="178"
         y="846"
         width="275"
         height="275"
         id="rect10" /></clipPath><clipPath
       id="clip10"><rect
         x="462"
         y="1382"
         width="305"
         height="307"
         id="rect11" /></clipPath><clipPath
       id="clip11"><rect
         x="462"
         y="1382"
         width="305"
         height="307"
         id="rect12" /></clipPath><clipPath
       id="clip12"><rect
         x="462"
         y="1382"
         width="305"
         height="307"
         id="rect13" /></clipPath><clipPath
       id="clip13"><rect
         x="1359"
         y="850"
         width="307"
         height="305"
         id="rect14" /></clipPath><clipPath
       id="clip14"><rect
         x="1359"
         y="850"
         width="307"
         height="305"
         id="rect15" /></clipPath><clipPath
       id="clip15"><rect
         x="1359"
         y="850"
         width="307"
         height="305"
         id="rect16" /></clipPath><clipPath
       id="clip16"><rect
         x="1037"
         y="1393"
         width="303"
         height="305"
         id="rect17" /></clipPath><clipPath
       id="clip17"><rect
         x="1037"
         y="1393"
         width="303"
         height="305"
         id="rect18" /></clipPath><clipPath
       id="clip18"><rect
         x="1037"
         y="1393"
         width="303"
         height="305"
         id="rect19" /></clipPath></defs><g
     clip-path="url(#clip0)"
     transform="matrix(3.7795276,0,0,3.7795276,-39.132155,-3655.3788)"
     id="g107"><path
       d="m 46.91413,1041.802 c 0,-36.6912 29.74408,-66.43515 66.43517,-66.43515 36.69207,0 66.43518,29.74395 66.43518,66.43515 0,36.6904 -29.74311,66.4352 -66.43518,66.4352 -36.69109,0 -66.43517,-29.7448 -66.43517,-66.4352 z"
       fill="#004a78"
       fill-rule="evenodd"
       id="path25"
       style="fill:#b2b2b2;fill-opacity:1;stroke:none;stroke-width:0.262777;stroke-dasharray:none;stroke-opacity:1" /><path
       d="m 115.1921,971.92803 c 21.88185,-0.38864 42.49636,10.49111 54.89518,28.97187 l 4.10093,-2.36796 -4.10631,9.20466 -10.27537,-0.9013 4.10093,-2.3676 c -11.08588,-16.24187 -29.29423,-25.76759 -48.59505,-25.4228 z"
       fill="#004a78"
       fill-rule="evenodd"
       id="path19"
       style="fill:#001493;fill-opacity:1;stroke-width:0.0768252" /><path
       d="m 175.02935,1011.0794 c 8.90174,18.4993 9.7545,40.3981 2.32397,59.6605 l 3.97263,2.294 -9.31045,1.3383 -4.72399,-9.4411 3.9688,2.2909 c 6.26202,-17.0705 5.43538,-36.3249 -2.2602,-52.6615 z"
       fill="#004a78"
       fill-rule="evenodd"
       id="path20"
       style="fill:#001493;fill-opacity:1;stroke-width:0.0768252" /><path
       d="m 172.28592,1079.8751 c -11.02058,18.2906 -30.37977,30.2523 -51.98842,32.1237 v 4.7717 l -5.92092,-8.1059 5.92015,-8.6466 v 4.77 c 19.03578,-1.8422 36.03336,-12.428 45.77019,-28.5037 z"
       fill="#004a78"
       fill-rule="evenodd"
       id="path21"
       style="fill:#001493;fill-opacity:1;stroke-width:0.0768252" /><path
       d="m 111.17873,1112.3968 c -21.966573,0 -42.538528,-10.9261 -55.063808,-29.2405 l -4.211791,2.4316 4.181829,-9.4127 10.594661,0.882 -4.210868,2.4307 c 11.197356,16.0542 29.353234,25.5944 48.710437,25.5959 z"
       fill="#004a78"
       fill-rule="evenodd"
       id="path22"
       style="fill:#001493;fill-opacity:1;stroke-width:0.0768252" /><path
       d="m 51.471143,1075.9317 c -11.043514,-19.1495 -12.093684,-42.4757 -2.815729,-62.5411 l -4.266344,-2.4631 10.2926,-1.1168 4.689181,9.7664 -4.264568,-2.4621 c -7.969889,17.7514 -6.933416,38.2529 2.786067,55.1091 z"
       fill="#004a78"
       fill-rule="evenodd"
       id="path23"
       style="fill:#001493;fill-opacity:1;stroke-width:0.0768252" /><path
       d="M 53.409598,1006.2214 C 64.18257,986.82472 83.589394,974.03676 105.35983,971.98916 l -6.2e-4,-4.83686 6.12713,8.19012 -6.12582,8.79942 -4.6e-4,-4.8347 c -19.15891,2.0295 -36.169324,13.41685 -45.643642,30.55566 z"
       fill="#004a78"
       fill-rule="evenodd"
       id="path24"
       style="fill:#001493;fill-opacity:1;stroke-width:0.0768252" /><path
       d="m 70.8341,989.00357 0.541233,0.7104 0.418237,-0.31867 c 0.271116,-0.20659 0.431758,-0.34709 0.481771,-0.42139 0.05001,-0.0744 0.07275,-0.15403 0.0683,-0.23915 -0.0045,-0.0851 -0.0388,-0.16971 -0.102792,-0.25376 -0.07176,-0.0942 -0.154881,-0.15112 -0.249299,-0.17071 -0.09442,-0.0196 -0.193293,-0.002 -0.296622,0.0524 -0.05063,0.0286 -0.190604,0.13014 -0.419697,0.30476 z m -0.926129,-0.043 1.189716,-0.90646 c 0.299158,-0.22794 0.535703,-0.36838 0.709635,-0.42147 0.173855,-0.053 0.350554,-0.0462 0.530017,0.0203 0.179465,0.0665 0.332192,0.18247 0.45834,0.34803 0.160027,0.21004 0.230399,0.43052 0.211192,0.66147 -0.01921,0.23092 -0.138055,0.45788 -0.356623,0.68075 0.176545,-0.0218 0.337109,-0.0204 0.481618,0.004 0.144586,0.0247 0.367302,0.0945 0.668073,0.20935 l 0.757958,0.28571 -0.675987,0.51512 -0.87281,-0.29785 c -0.310989,-0.1071 -0.514806,-0.16864 -0.611452,-0.18455 -0.09665,-0.0159 -0.182921,-0.0116 -0.258748,0.013 -0.07583,0.0246 -0.178696,0.0864 -0.308531,0.18531 l -0.114545,0.0873 0.890404,1.16876 -0.565204,0.43067 z"
       fill="#ffffff"
       fill-rule="evenodd"
       id="path26"
       style="fill:#ffffff;fill-opacity:0.5;stroke-width:0.0768252" /><path
       d="m 74.499971,987.35352 c -0.121232,0.0836 -0.190989,0.19674 -0.209197,0.33949 -0.01821,0.14281 0.02558,0.28955 0.131372,0.4402 l 0.83025,-0.57235 c -0.114776,-0.15802 -0.24054,-0.2516 -0.377288,-0.2808 -0.136749,-0.0292 -0.261821,-0.005 -0.375137,0.0735 z m -0.326585,-0.40188 c 0.312371,-0.21527 0.629813,-0.28202 0.952556,-0.2002 0.322666,0.0817 0.62674,0.33818 0.912299,0.76932 L 74.64663,988.48 c 0.117542,0.16194 0.250681,0.25921 0.39949,0.29178 0.148735,0.0326 0.287096,0.005 0.414857,-0.0833 0.08696,-0.0599 0.143817,-0.13406 0.170398,-0.22241 0.02658,-0.0883 0.01867,-0.1956 -0.02366,-0.32198 l 0.617522,-0.28855 c 0.06868,0.25198 0.06292,0.48392 -0.01752,0.69581 -0.08036,0.21187 -0.235854,0.39733 -0.466483,0.55629 -0.365072,0.25168 -0.717394,0.31859 -1.057039,0.20089 -0.270117,-0.0957 -0.505509,-0.28916 -0.706253,-0.58041 -0.239849,-0.34787 -0.336726,-0.68298 -0.290707,-1.00533 0.04609,-0.32237 0.208119,-0.57941 0.48615,-0.7711 z"
       fill="#ffffff"
       fill-rule="evenodd"
       id="path27"
       style="fill:#ffffff;fill-opacity:0.5;stroke-width:0.0768252" /><path
       d="m 76.149561,986.8192 1.115349,-0.71578 0.364306,0.5678 -1.11535,0.71571 z"
       fill="#ffffff"
       fill-rule="evenodd"
       id="path28"
       style="fill:#ffffff;fill-opacity:0.5;stroke-width:0.0768252" /><path
       d="m 76.640705,984.23525 0.612758,-0.35992 0.965386,1.64367 c 0.153189,0.26082 0.26013,0.42546 0.320669,0.49383 0.09918,0.10878 0.220181,0.17187 0.363075,0.18907 0.142819,0.0173 0.299849,-0.0243 0.470939,-0.12484 0.173934,-0.10217 0.284177,-0.21473 0.330734,-0.33764 0.04656,-0.123 0.0484,-0.24147 0.0056,-0.35548 -0.04287,-0.11408 -0.134829,-0.29116 -0.27588,-0.53131 l -0.986053,-1.67887 0.612758,-0.35992 0.936194,1.59404 c 0.214035,0.3643 0.348632,0.63143 0.40387,0.80129 0.05524,0.16994 0.06876,0.33272 0.04049,0.48853 -0.02819,0.15581 -0.0988,0.30814 -0.211807,0.45712 -0.112933,0.14895 -0.289477,0.29399 -0.529633,0.43497 -0.289784,0.17024 -0.529249,0.2659 -0.718317,0.28687 -0.189066,0.0211 -0.358466,0.004 -0.508198,-0.0522 -0.149809,-0.0559 -0.272883,-0.13445 -0.369453,-0.23555 -0.142126,-0.15035 -0.312909,-0.39527 -0.512347,-0.73475 z"
       fill="#ffffff"
       fill-rule="evenodd"
       id="path29"
       style="fill:#ffffff;fill-opacity:0.5;stroke-width:0.0768252" /><path
       d="m 81.083432,982.76874 c 0.308914,-0.1621 0.564896,-0.23225 0.767944,-0.21042 0.203051,0.0217 0.384588,0.1163 0.544615,0.28355 l -0.50866,0.39973 c -0.07022,-0.0752 -0.151269,-0.11855 -0.243152,-0.12999 -0.09181,-0.0115 -0.200129,0.0156 -0.324817,0.081 -0.157338,0.0826 -0.25844,0.16364 -0.303459,0.2433 -0.02896,0.0549 -0.0305,0.10725 -0.0045,0.15688 0.02236,0.0425 0.06115,0.0682 0.116391,0.0771 0.07475,0.0115 0.290092,-0.0302 0.646177,-0.12484 0.356162,-0.0947 0.624743,-0.1226 0.805973,-0.084 0.180464,0.0409 0.320516,0.15625 0.420158,0.34616 0.108631,0.20698 0.115469,0.43016 0.02067,0.6697 -0.09488,0.23953 -0.311604,0.4482 -0.650326,0.62589 -0.307607,0.1614 -0.583718,0.22678 -0.828483,0.19613 -0.244688,-0.0306 -0.45081,-0.13851 -0.618366,-0.32351 l 0.551528,-0.40594 c 0.08651,0.1028 0.184535,0.16386 0.294088,0.18323 0.109551,0.0193 0.23447,-0.008 0.374752,-0.0814 0.154495,-0.081 0.255829,-0.1704 0.304074,-0.26797 0.03158,-0.0672 0.02989,-0.13414 -0.005,-0.20074 -0.02382,-0.0453 -0.0577,-0.0754 -0.101639,-0.0903 -0.04464,-0.0127 -0.125072,-0.004 -0.241155,0.0262 -0.537624,0.1465 -0.894015,0.20973 -1.0691,0.18951 -0.242537,-0.0282 -0.420696,-0.15073 -0.534473,-0.36752 -0.102563,-0.1956 -0.111627,-0.40056 -0.02704,-0.61484 0.08458,-0.21426 0.289171,-0.40655 0.613756,-0.57687 z"
       fill="#ffffff"
       fill-rule="evenodd"
       id="path30"
       style="fill:#ffffff;fill-opacity:0.5;stroke-width:0.0768252" /><path
       d="m 83.883942,981.9474 c -0.133137,0.063 -0.22018,0.1634 -0.261128,0.30138 -0.04102,0.13805 -0.02143,0.28987 0.05869,0.45557 l 0.911532,-0.43098 c -0.08781,-0.17448 -0.196827,-0.2871 -0.327045,-0.33796 -0.130297,-0.0508 -0.257595,-0.0469 -0.382053,0.0119 z m -0.257517,-0.4492 c 0.34287,-0.16211 0.666996,-0.17685 0.972299,-0.0441 0.305304,0.13268 0.564129,0.43483 0.776396,0.90623 l -1.527977,0.72247 c 0.08988,0.17885 0.205585,0.29632 0.347174,0.3524 0.141588,0.0561 0.282563,0.0509 0.422923,-0.0154 0.09549,-0.0451 0.163483,-0.10916 0.203971,-0.19199 0.04049,-0.0829 0.05001,-0.19006 0.02858,-0.32158 l 0.655934,-0.18531 c 0.0272,0.25975 -0.0159,0.48776 -0.129373,0.6839 -0.113548,0.19621 -0.296853,0.35417 -0.55007,0.47386 -0.400796,0.18953 -0.75934,0.19883 -1.075629,0.0279 -0.251142,-0.13797 -0.452271,-0.36684 -0.603463,-0.68659 -0.180615,-0.38198 -0.222255,-0.72838 -0.124841,-1.03907 0.09741,-0.31074 0.298774,-0.5383 0.604078,-0.68266 z"
       fill="#ffffff"
       fill-rule="evenodd"
       id="path31"
       style="fill:#ffffff;fill-opacity:0.5;stroke-width:0.0768252" /><path
       d="m 46.068392,1051.6895 1.360606,0.2835 -0.137394,-0.9503 z m -0.76007,0.4809 -0.107509,-0.7437 3.281728,-1.8983 0.110598,0.7652 -0.747271,0.4187 0.201282,1.392 0.832793,0.1737 0.107855,0.7459 z"
       fill="#ffffff"
       fill-rule="evenodd"
       id="path32"
       style="fill:#ffffff;fill-opacity:0.5;stroke-width:0.0768252" /><path
       d="m 45.759686,1048.3591 c -0.02982,-0.3088 0.01298,-0.5608 0.128398,-0.7559 0.11543,-0.1959 0.305511,-0.3465 0.570243,-0.4525 l 0.183366,0.6507 c -0.13008,0.035 -0.224767,0.095 -0.284069,0.1805 -0.0593,0.085 -0.08289,0.1913 -0.07074,0.3165 0.01614,0.1675 0.08677,0.2958 0.211876,0.3842 0.12511,0.088 0.323081,0.119 0.593914,0.093 0.301101,-0.028 0.508906,-0.1 0.623406,-0.2128 0.1145,-0.1137 0.16353,-0.2551 0.147082,-0.4256 -0.0123,-0.1275 -0.05862,-0.2282 -0.138938,-0.3027 -0.08033,-0.074 -0.210525,-0.1198 -0.390595,-0.136 l 0.04868,-0.6707 c 0.309298,0.04 0.550599,0.1491 0.723886,0.3289 0.173287,0.1789 0.275687,0.4317 0.307201,0.759 0.03582,0.371 -0.05272,0.6784 -0.265616,0.9211 -0.212898,0.2436 -0.526452,0.3849 -0.940663,0.4249 -0.41899,0.041 -0.755869,-0.039 -1.010629,-0.2374 -0.254768,-0.199 -0.40036,-0.4871 -0.436798,-0.8651 z"
       fill="#ffffff"
       fill-rule="evenodd"
       id="path33"
       style="fill:#ffffff;fill-opacity:0.5;stroke-width:0.0768252" /><path
       d="m 45.551366,1045.5619 c -0.01696,-0.3096 0.03627,-0.56 0.159697,-0.7498 0.123427,-0.1905 0.319601,-0.3334 0.588504,-0.4279 l 0.156201,0.6576 c -0.131417,0.029 -0.228524,0.085 -0.291321,0.1683 -0.06279,0.083 -0.09073,0.1874 -0.08382,0.3134 0.0092,0.1682 0.07444,0.2989 0.195774,0.3926 0.12133,0.093 0.317841,0.1329 0.589518,0.1175 0.302047,-0.016 0.512625,-0.079 0.631727,-0.1874 0.119102,-0.1084 0.173971,-0.2474 0.164613,-0.4187 -0.007,-0.1276 -0.04908,-0.2305 -0.126262,-0.3081 -0.07717,-0.078 -0.205377,-0.1283 -0.38461,-0.1521 l 0.07646,-0.6676 c 0.307409,0.052 0.543953,0.1713 0.709642,0.358 0.165689,0.1867 0.257496,0.4433 0.275426,0.7713 0.02038,0.3718 -0.08083,0.6753 -0.303651,0.9096 -0.222809,0.2343 -0.541972,0.3626 -0.957489,0.3857 -0.420311,0.022 -0.753602,-0.071 -0.999888,-0.2797 -0.246286,-0.2097 -0.379793,-0.5032 -0.400521,-0.8827 z"
       fill="#ffffff"
       fill-rule="evenodd"
       id="path34"
       style="fill:#ffffff;fill-opacity:0.5;stroke-width:0.0768252" /><path
       d="m 45.97684,1042.8343 c 0.0019,0.1472 0.05713,0.2681 0.165604,0.3628 0.108478,0.095 0.25473,0.14 0.438757,0.1359 l -0.01317,-1.0083 c -0.195182,0.01 -0.342963,0.06 -0.443335,0.1571 -0.100373,0.097 -0.149656,0.2148 -0.147859,0.3525 z m -0.51559,0.048 c -0.005,-0.3793 0.116367,-0.6802 0.36396,-0.9028 0.2476,-0.2225 0.629928,-0.3324 1.146978,-0.3295 l 0.02207,1.69 c 0.199984,-0.01 0.354909,-0.064 0.464777,-0.1693 0.109868,-0.1055 0.163792,-0.2359 0.161763,-0.3911 -0.0014,-0.1056 -0.03134,-0.194 -0.0899,-0.2653 -0.05856,-0.071 -0.152091,-0.1245 -0.280597,-0.1596 l 0.104044,-0.6737 c 0.247593,0.083 0.437021,0.2172 0.568284,0.402 0.131264,0.1847 0.198732,0.4171 0.202389,0.6972 0.0058,0.4433 -0.134767,0.7733 -0.421655,0.9899 -0.229862,0.1711 -0.521636,0.2589 -0.875324,0.2635 -0.422501,0.01 -0.754824,-0.1005 -0.996962,-0.3182 -0.242145,-0.2178 -0.365419,-0.4955 -0.369829,-0.8331 z"
       fill="#ffffff"
       fill-rule="evenodd"
       id="path35"
       style="fill:#ffffff;fill-opacity:0.5;stroke-width:0.0768252" /><path
       d="m 45.480226,1040.1262 c 0.01003,-0.3488 0.07427,-0.6064 0.192732,-0.7726 0.118464,-0.1663 0.2898,-0.2783 0.514022,-0.336 l 0.09932,0.6394 c -0.09997,0.024 -0.177451,0.074 -0.232427,0.1482 -0.05498,0.074 -0.08449,0.1821 -0.08854,0.3229 -0.0051,0.1776 0.01604,0.3055 0.06344,0.3837 0.03372,0.052 0.07859,0.079 0.134574,0.081 0.048,0 0.08944,-0.02 0.124327,-0.064 0.04654,-0.06 0.115768,-0.2677 0.207682,-0.6246 0.09191,-0.3567 0.199115,-0.6046 0.32159,-0.7436 0.124042,-0.1374 0.29325,-0.203 0.507631,-0.1968 0.233579,0.01 0.431558,0.11 0.593936,0.3101 0.162378,0.2 0.238074,0.4911 0.227088,0.8736 -0.01,0.3471 -0.08826,0.6199 -0.234871,0.8182 -0.146605,0.1983 -0.341595,0.3252 -0.584962,0.3807 l -0.08375,-0.6797 c 0.132016,-0.025 0.233287,-0.081 0.303805,-0.1666 0.07053,-0.086 0.108062,-0.2083 0.11261,-0.3667 0.005,-0.1744 -0.02322,-0.3064 -0.08468,-0.3963 -0.04309,-0.061 -0.102239,-0.092 -0.177428,-0.094 -0.0512,0 -0.09405,0.013 -0.128567,0.044 -0.03297,0.033 -0.06472,0.1071 -0.09528,0.223 -0.13562,0.5405 -0.255114,0.8821 -0.35849,1.0249 -0.143386,0.1976 -0.337462,0.2929 -0.582243,0.2859 -0.22078,-0.01 -0.403863,-0.099 -0.549239,-0.2776 -0.145376,-0.1787 -0.212798,-0.4513 -0.202273,-0.8176 z"
       fill="#ffffff"
       fill-rule="evenodd"
       id="path36"
       style="fill:#ffffff;fill-opacity:0.5;stroke-width:0.0768252" /><path
       d="m 45.615846,1037.3282 c 0.02463,-0.348 0.09961,-0.6026 0.224936,-0.7639 0.125333,-0.1612 0.301217,-0.2659 0.527651,-0.314 l 0.07244,0.6429 c -0.10091,0.02 -0.180385,0.066 -0.238434,0.1383 -0.05806,0.072 -0.09205,0.1784 -0.101993,0.319 -0.01254,0.1772 0.0032,0.3059 0.04729,0.386 0.03151,0.053 0.0752,0.082 0.131079,0.086 0.0479,0 0.09019,-0.016 0.126884,-0.058 0.04899,-0.058 0.126885,-0.2626 0.233672,-0.6153 0.106787,-0.3526 0.224276,-0.5959 0.352474,-0.7295 0.129682,-0.1321 0.301494,-0.1905 0.515429,-0.1754 0.233087,0.016 0.426564,0.1281 0.580422,0.3347 0.15385,0.2066 0.217277,0.5007 0.190273,0.8823 -0.02451,0.3464 -0.114162,0.6157 -0.26895,0.8077 -0.154787,0.1921 -0.354917,0.3107 -0.600404,0.3558 l -0.05518,-0.6825 c 0.132946,-0.02 0.236453,-0.071 0.31052,-0.1538 0.07407,-0.083 0.11669,-0.2035 0.127876,-0.3616 0.01231,-0.174 -0.01035,-0.3071 -0.068,-0.3995 -0.04053,-0.062 -0.09831,-0.096 -0.173341,-0.1013 -0.05109,0 -0.09453,0.01 -0.130319,0.039 -0.0343,0.031 -0.06914,0.1042 -0.104536,0.2188 -0.158145,0.5344 -0.291859,0.8707 -0.40112,1.009 -0.151538,0.1914 -0.34944,0.2785 -0.593713,0.2612 -0.22032,-0.015 -0.399361,-0.1157 -0.537116,-0.3003 -0.137763,-0.1846 -0.193707,-0.4598 -0.16784,-0.8254 z"
       fill="#ffffff"
       fill-rule="evenodd"
       id="path37"
       style="fill:#ffffff;fill-opacity:0.5;stroke-width:0.0768252" /><path
       d="m 75.889585,1095.0389 c 0.364074,0.2505 0.583333,0.5186 0.657701,0.8044 0.07437,0.2865 0.02458,0.5654 -0.149194,0.8381 l -0.603387,-0.3764 c 0.07729,-0.166 0.09718,-0.3104 0.05962,-0.4325 -0.03764,-0.1214 -0.138823,-0.239 -0.303766,-0.3527 -0.170168,-0.1167 -0.327429,-0.1736 -0.471784,-0.1697 -0.0928,0 -0.16502,0.041 -0.216723,0.116 -0.04709,0.069 -0.05839,0.1475 -0.03388,0.2358 0.03127,0.1129 0.16625,0.3012 0.405023,0.5639 0.238696,0.2635 0.401643,0.4779 0.488762,0.643 0.0872,0.166 0.126532,0.3373 0.118081,0.5155 -0.0085,0.1775 -0.07575,0.358 -0.201666,0.5416 -0.114239,0.166 -0.267352,0.2897 -0.459339,0.3719 -0.192064,0.081 -0.396726,0.1 -0.614064,0.054 -0.217415,-0.046 -0.45204,-0.1552 -0.704027,-0.328 -0.366686,-0.252 -0.590171,-0.5301 -0.670222,-0.8351 -0.08013,-0.3042 -0.02789,-0.6323 0.1568,-0.9826 l 0.607994,0.3357 c -0.09711,0.2151 -0.123996,0.4034 -0.08074,0.5655 0.04318,0.1613 0.153883,0.3034 0.331963,0.4256 0.188683,0.1298 0.358236,0.1874 0.508737,0.1736 0.150424,-0.014 0.262359,-0.075 0.335803,-0.1813 0.04709,-0.069 0.06707,-0.1414 0.05992,-0.2167 -0.0071,-0.076 -0.04863,-0.1659 -0.124381,-0.2704 -0.05232,-0.071 -0.179617,-0.2205 -0.381975,-0.4494 -0.260514,-0.2935 -0.415163,-0.5401 -0.46387,-0.7406 -0.06837,-0.282 -0.02382,-0.5378 0.133906,-0.7675 0.101486,-0.1475 0.238312,-0.2574 0.410477,-0.328 0.172089,-0.072 0.36008,-0.086 0.563974,-0.045 0.203895,0.042 0.417315,0.1383 0.640262,0.2912 z"
       fill="#ffffff"
       fill-rule="evenodd"
       id="path38"
       style="fill:#fdfdfd;fill-opacity:0.5;stroke-width:0.0768252" /><path
       d="m 78.055134,1096.6207 -0.482386,0.7598 0.389198,0.2474 -0.288096,0.454 -0.389196,-0.2466 -0.55053,0.8674 c -0.111472,0.1759 -0.17278,0.2804 -0.183765,0.3142 -0.01098,0.034 -0.0093,0.068 0.005,0.1037 0.01436,0.036 0.04049,0.066 0.07828,0.09 0.0527,0.033 0.140668,0.064 0.263818,0.091 l -0.231781,0.4724 c -0.1684,-0.027 -0.336418,-0.094 -0.504051,-0.2005 -0.102637,-0.065 -0.184303,-0.1406 -0.244918,-0.2274 -0.06054,-0.087 -0.09273,-0.1697 -0.09649,-0.2489 -0.0038,-0.079 0.01644,-0.1705 0.06077,-0.2727 0.02989,-0.074 0.108708,-0.2121 0.236468,-0.4133 l 0.59555,-0.9388 -0.261513,-0.166 0.288094,-0.454 0.261513,0.1659 0.271423,-0.4271 z"
       fill="#ffffff"
       fill-rule="evenodd"
       id="path39"
       style="fill:#fdfdfd;fill-opacity:0.5;stroke-width:0.0768252" /><path
       d="m 79.052863,1098.8564 c -0.151805,-0.089 -0.313522,-0.1061 -0.485073,-0.051 -0.171628,0.055 -0.321438,0.192 -0.449582,0.4102 -0.128067,0.2182 -0.174393,0.4149 -0.138977,0.5923 0.03542,0.1767 0.128989,0.3097 0.280796,0.3988 0.151807,0.089 0.31314,0.106 0.484076,0.05 0.170936,-0.055 0.321208,-0.1936 0.450888,-0.4141 0.126531,-0.2151 0.172395,-0.411 0.13767,-0.5877 -0.03473,-0.1759 -0.127991,-0.3088 -0.279798,-0.3979 z m 0.276418,-0.4756 c 0.332577,0.1959 0.541695,0.464 0.627356,0.8044 0.08566,0.3411 0.03157,0.676 -0.162179,1.0064 -0.195367,0.3326 -0.464562,0.5447 -0.807663,0.6376 -0.343103,0.093 -0.677445,0.043 -1.003184,-0.1483 -0.201437,-0.1183 -0.366841,-0.2765 -0.496214,-0.4747 -0.129375,-0.199 -0.18999,-0.4141 -0.181846,-0.6461 0.0081,-0.232 0.08643,-0.474 0.234777,-0.7268 0.113472,-0.1928 0.270963,-0.3519 0.472322,-0.4771 0.201436,-0.1244 0.417392,-0.1836 0.647944,-0.1759 0.230476,0.01 0.453423,0.074 0.668687,0.2005 z"
       fill="#ffffff"
       fill-rule="evenodd"
       id="path40"
       style="fill:#fdfdfd;fill-opacity:0.5;stroke-width:0.0768252" /><path
       d="m 81.906998,1099.8205 c 0.135212,0.073 0.24538,0.1806 0.330503,0.3227 l -0.462949,0.4187 c -0.06507,-0.1191 -0.140591,-0.2013 -0.226557,-0.2482 -0.08312,-0.044 -0.165866,-0.06 -0.2483,-0.044 -0.08251,0.014 -0.172549,0.072 -0.270195,0.1744 -0.09764,0.1021 -0.249451,0.3441 -0.455265,0.7252 l -0.373678,0.6937 -0.593859,-0.3203 1.209996,-2.2441 0.551529,0.2973 -0.172011,0.3188 c 0.175621,-0.1 0.314061,-0.1536 0.415239,-0.1605 0.101257,-0.01 0.199747,0.014 0.295547,0.067 z"
       fill="#ffffff"
       fill-rule="evenodd"
       id="path41"
       style="fill:#fdfdfd;fill-opacity:0.5;stroke-width:0.0768252" /><path
       d="m 83.172079,1102.0123 c -0.09027,-0.013 -0.228171,-0.043 -0.41378,-0.09 -0.185533,-0.048 -0.312679,-0.067 -0.381361,-0.058 -0.106555,0.017 -0.181153,0.068 -0.223792,0.1544 -0.04187,0.085 -0.04656,0.1737 -0.01398,0.2666 0.03257,0.093 0.09764,0.1629 0.195212,0.2113 0.108939,0.054 0.230707,0.07 0.365228,0.047 0.100103,-0.018 0.181153,-0.061 0.243228,-0.1283 0.04133,-0.044 0.0978,-0.1383 0.169554,-0.2835 z m 0.245611,-1.422 c 0.269657,0.1337 0.454652,0.265 0.555063,0.3941 0.100333,0.1291 0.153112,0.2566 0.158259,0.3811 0.0052,0.1252 -0.05731,0.3188 -0.187223,0.5815 l -0.355854,0.7022 c -0.09941,0.2005 -0.1631,0.3534 -0.19091,0.4587 -0.02789,0.1052 -0.04225,0.2251 -0.04318,0.3603 l -0.598162,-0.2958 c 0.0041,-0.048 0.01421,-0.1175 0.03035,-0.2074 0.0078,-0.041 0.0123,-0.068 0.01367,-0.082 -0.153036,0.05 -0.300771,0.07 -0.443205,0.062 -0.142511,-0.01 -0.280412,-0.045 -0.41378,-0.1114 -0.235239,-0.116 -0.389044,-0.272 -0.461413,-0.4663 -0.07229,-0.1952 -0.06023,-0.3903 0.03641,-0.5847 0.06384,-0.1298 0.15173,-0.2289 0.263434,-0.2996 0.11178,-0.071 0.236545,-0.1052 0.374292,-0.1045 0.137826,0 0.32136,0.034 0.550684,0.098 0.308837,0.087 0.529095,0.1344 0.660851,0.1421 l 0.02981,-0.06 c 0.05754,-0.1168 0.06983,-0.2136 0.03703,-0.2912 -0.03288,-0.078 -0.128913,-0.1567 -0.288171,-0.2351 -0.107556,-0.054 -0.201973,-0.074 -0.283177,-0.061 -0.08113,0.012 -0.166712,0.063 -0.25652,0.1506 l -0.499672,-0.3711 c 0.17109,-0.1905 0.358159,-0.3012 0.561362,-0.3327 0.203126,-0.032 0.453193,0.026 0.750045,0.1729 z"
       fill="#ffffff"
       fill-rule="evenodd"
       id="path42"
       style="fill:#fdfdfd;fill-opacity:0.5;stroke-width:0.0768252" /><path
       d="m 85.704548,1102.2344 c -0.147813,-0.066 -0.295087,-0.062 -0.441822,0.01 -0.146738,0.072 -0.272346,0.2266 -0.376751,0.4625 -0.109554,0.2466 -0.141897,0.4494 -0.09696,0.6069 0.04502,0.1567 0.137671,0.2666 0.278184,0.3288 0.150732,0.067 0.304153,0.065 0.460184,-0.01 0.156109,-0.072 0.285405,-0.2235 0.387814,-0.4548 0.107017,-0.2412 0.136672,-0.4425 0.08904,-0.6038 -0.04763,-0.1614 -0.147581,-0.2758 -0.299694,-0.3427 z m 0.05101,-0.5424 c 0.288326,0.1283 0.470017,0.3595 0.545153,0.696 l 0.144893,-0.3273 0.577264,0.2559 -0.926819,2.0919 c -0.121922,0.275 -0.2357,0.4709 -0.341335,0.587 -0.105711,0.116 -0.216647,0.1943 -0.33296,0.2358 -0.116314,0.041 -0.252602,0.053 -0.408942,0.037 -0.156262,-0.017 -0.33903,-0.072 -0.548225,-0.1644 -0.395112,-0.1752 -0.645331,-0.3673 -0.750735,-0.5754 -0.105404,-0.209 -0.112012,-0.4172 -0.01998,-0.6246 0.0091,-0.021 0.02082,-0.045 0.03526,-0.074 l 0.66669,0.398 c -0.02466,0.087 -0.02251,0.1552 0.0063,0.2043 0.0391,0.07 0.121538,0.1329 0.247377,0.189 0.16095,0.071 0.292398,0.1007 0.394268,0.088 0.06845,-0.01 0.132369,-0.042 0.191985,-0.1014 0.04172,-0.042 0.09304,-0.1329 0.153959,-0.2704 l 0.150807,-0.3404 c -0.295931,0.1706 -0.584332,0.1929 -0.865282,0.068 -0.31314,-0.1383 -0.502513,-0.381 -0.568046,-0.7268 -0.05071,-0.2727 -0.007,-0.5654 0.131064,-0.8765 0.173164,-0.3911 0.399414,-0.6477 0.678905,-0.7706 0.279414,-0.1229 0.558904,-0.1229 0.838393,0 z"
       fill="#ffffff"
       fill-rule="evenodd"
       id="path43"
       style="fill:#fdfdfd;fill-opacity:0.5;stroke-width:0.0768252" /><path
       d="m 88.341804,1103.3368 c -0.137057,-0.054 -0.269888,-0.048 -0.398493,0.017 -0.128606,0.065 -0.225788,0.1828 -0.291629,0.3542 l 0.93842,0.3695 c 0.06699,-0.1836 0.07437,-0.3403 0.02213,-0.4702 -0.05216,-0.1298 -0.142358,-0.2197 -0.270425,-0.2704 z m 0.150808,-0.4947 c 0.353012,0.1382 0.585792,0.3641 0.698265,0.6775 0.112472,0.3135 0.06968,0.7091 -0.128375,1.187 l -1.573074,-0.6185 c -0.06868,0.1883 -0.07498,0.3527 -0.01882,0.494 0.05616,0.1422 0.156493,0.2413 0.300926,0.2981 0.09833,0.038 0.191525,0.044 0.279643,0.017 0.08812,-0.028 0.172704,-0.094 0.25383,-0.1997 l 0.584334,0.3511 c -0.170552,0.1974 -0.366226,0.3226 -0.586868,0.3741 -0.220642,0.051 -0.461337,0.026 -0.722004,-0.076 -0.412629,-0.1622 -0.665,-0.4172 -0.757191,-0.7645 -0.07152,-0.2773 -0.04264,-0.5808 0.08681,-0.9103 0.154496,-0.3926 0.378365,-0.6607 0.671452,-0.8021 0.293089,-0.1421 0.596778,-0.1513 0.911071,-0.028 z"
       fill="#ffffff"
       fill-rule="evenodd"
       id="path44"
       style="fill:#fdfdfd;fill-opacity:0.5;stroke-width:0.0768252" /><path
       d="m 135.08406,977.91545 -0.33649,0.94035 0.36646,0.13107 c 0.26351,0.0943 0.44635,0.14004 0.54776,0.13721 0.10141,-0.003 0.19053,-0.0322 0.26735,-0.088 0.0768,-0.0558 0.13291,-0.13261 0.16748,-0.23056 0.0438,-0.12062 0.0438,-0.2327 7.7e-4,-0.33642 -0.043,-0.10371 -0.11524,-0.18476 -0.21665,-0.24315 -0.0745,-0.0436 -0.23201,-0.10863 -0.47325,-0.1949 z m -0.46786,-0.79997 1.07325,0.38412 c 0.40717,0.14559 0.66607,0.25706 0.77824,0.33441 0.17209,0.11762 0.29193,0.28265 0.36031,0.495 0.0691,0.21235 0.0561,0.45042 -0.0384,0.71417 -0.073,0.20343 -0.17055,0.36122 -0.29424,0.47348 -0.12369,0.11223 -0.2566,0.18752 -0.39873,0.22594 -0.14135,0.0384 -0.2758,0.0494 -0.40256,0.033 -0.17132,-0.0255 -0.40794,-0.0924 -0.7114,-0.20083 l -0.43637,-0.15602 -0.44712,1.25001 -0.66915,-0.23938 z"
       fill="#ffffff"
       fill-rule="evenodd"
       id="path45"
       style="fill:#ffffff;fill-opacity:0.5;stroke-width:0.0768252" /><path
       d="m 137.75605,978.27024 0.62689,0.24884 -1.29834,3.27128 -0.6269,-0.24883 z"
       fill="#ffffff"
       fill-rule="evenodd"
       id="path46"
       style="fill:#ffffff;fill-opacity:0.5;stroke-width:0.0768252" /><path
       d="m 139.43315,981.45026 c -0.0907,-0.008 -0.22971,-0.0305 -0.41793,-0.0681 -0.18746,-0.0376 -0.31576,-0.0501 -0.38336,-0.0377 -0.10602,0.0224 -0.17747,0.0777 -0.21588,0.16588 -0.0376,0.0866 -0.0376,0.17553 0,0.26665 0.0376,0.0911 0.10602,0.15825 0.20589,0.20144 0.1114,0.0482 0.23432,0.0575 0.36723,0.0279 0.0991,-0.0235 0.17746,-0.0705 0.23585,-0.1412 0.0392,-0.0459 0.0906,-0.14305 0.15519,-0.29148 z m 0.17132,-1.43225 c 0.27657,0.11931 0.46786,0.24084 0.57542,0.36469 0.10678,0.12377 0.16594,0.24784 0.17746,0.3723 0.0115,0.12445 -0.0407,0.32112 -0.15672,0.59001 l -0.31882,0.72001 c -0.0891,0.20566 -0.14444,0.3617 -0.16672,0.46794 -0.023,0.10633 -0.0307,0.22701 -0.0246,0.36216 l -0.61307,-0.26474 c 0.002,-0.0481 0.008,-0.11762 0.02,-0.20859 0.005,-0.0412 0.008,-0.0686 0.009,-0.0823 -0.15058,0.0571 -0.29654,0.0854 -0.43944,0.0848 -0.14289,0 -0.28272,-0.0305 -0.4187,-0.0895 -0.24123,-0.10411 -0.40256,-0.25153 -0.48553,-0.4423 -0.0822,-0.19075 -0.0799,-0.38605 0.006,-0.58587 0.0568,-0.13221 0.13982,-0.23646 0.24737,-0.31275 0.10833,-0.0763 0.23125,-0.11739 0.36876,-0.12331 0.13752,-0.006 0.32267,0.0169 0.55468,0.0685 0.31345,0.0707 0.53547,0.10664 0.66761,0.10786 l 0.0269,-0.0617 c 0.0515,-0.119 0.0584,-0.21657 0.0215,-0.29263 -0.0369,-0.0761 -0.13674,-0.14935 -0.29962,-0.21987 -0.11062,-0.0476 -0.20589,-0.0631 -0.28655,-0.0463 -0.0799,0.0167 -0.16287,0.0711 -0.24815,0.16333 l -0.5178,-0.34418 c 0.16056,-0.19898 0.34187,-0.3195 0.54315,-0.36153 0.20129,-0.0421 0.45404,0.003 0.7575,0.13398 z"
       fill="#ffffff"
       fill-rule="evenodd"
       id="path47"
       style="fill:#ffffff;fill-opacity:0.5;stroke-width:0.0768252" /><path
       d="m 142.51461,981.35568 c 0.13444,0.0648 0.24507,0.14814 0.33265,0.25 0.0876,0.10187 0.14213,0.20405 0.16287,0.30645 0.0207,0.1025 0.0192,0.20667 -0.005,0.31253 -0.0238,0.10594 -0.0784,0.24752 -0.16364,0.42477 l -0.68989,1.4268 -0.60692,-0.29347 0.5662,-1.17167 c 0.11908,-0.24792 0.18361,-0.41448 0.19283,-0.49983 0.009,-0.0853 -0.005,-0.16224 -0.0446,-0.23077 -0.0384,-0.0685 -0.0991,-0.1227 -0.18131,-0.16234 -0.10524,-0.0508 -0.21357,-0.0676 -0.32497,-0.0503 -0.11139,0.0172 -0.20512,0.0659 -0.28271,0.14603 -0.0768,0.0802 -0.17747,0.24853 -0.30116,0.50506 l -0.50243,1.03982 -0.60692,-0.29346 1.10858,-2.29578 0.56467,0.27259 -0.16287,0.33718 c 0.32574,-0.16264 0.63995,-0.17049 0.94418,-0.0236 z"
       fill="#ffffff"
       fill-rule="evenodd"
       id="path48"
       style="fill:#ffffff;fill-opacity:0.5;stroke-width:0.0768252" /><path
       d="m 145.19427,982.7407 c 0.13137,0.0707 0.23816,0.15879 0.32113,0.2645 0.083,0.10572 0.13291,0.21021 0.14904,0.31345 0.0161,0.10326 0.01,0.20727 -0.0184,0.31198 -0.0284,0.10479 -0.0891,0.24378 -0.18284,0.4171 l -0.75212,1.39453 -0.59386,-0.32021 0.61768,-1.14532 c 0.1306,-0.24223 0.20281,-0.40579 0.21587,-0.4906 0.0131,-0.0848 0.002,-0.16233 -0.0346,-0.23255 -0.0353,-0.0702 -0.0937,-0.127 -0.17362,-0.17032 -0.10295,-0.0555 -0.2105,-0.077 -0.32267,-0.0648 -0.11216,0.0122 -0.20819,0.0568 -0.28886,0.13337 -0.0807,0.0767 -0.18822,0.24032 -0.32343,0.49107 l -0.54854,1.0164 -0.59309,-0.32028 1.21,-2.244 0.55161,0.29747 -0.17824,0.32959 c 0.33265,-0.14797 0.64764,-0.14174 0.94495,0.0186 z"
       fill="#ffffff"
       fill-rule="evenodd"
       id="path49"
       style="fill:#ffffff;fill-opacity:0.5;stroke-width:0.0768252" /><path
       d="m 146.50414,983.54053 0.58311,0.33934 -1.28222,2.20365 -0.5831,-0.33927 z m 0.48784,-0.83824 0.5831,0.33925 -0.31421,0.53954 -0.5831,-0.33932 z"
       fill="#ffffff"
       fill-rule="evenodd"
       id="path50"
       style="fill:#ffffff;fill-opacity:0.5;stroke-width:0.0768252" /><path
       d="m 148.95717,984.95449 c 0.12676,0.079 0.2274,0.17393 0.30346,0.28479 0.0761,0.11087 0.11908,0.21827 0.1283,0.32236 0.009,0.1041 -0.004,0.20751 -0.0384,0.31022 -0.0353,0.10272 -0.10525,0.23747 -0.20974,0.40434 l -0.84046,1.3429 -0.57235,-0.35808 0.69066,-1.10282 c 0.14673,-0.23333 0.22894,-0.39189 0.24737,-0.47564 0.0184,-0.0838 0.0123,-0.16186 -0.0192,-0.23431 -0.0315,-0.0724 -0.0853,-0.13276 -0.16287,-0.18116 -0.0991,-0.0621 -0.20436,-0.0906 -0.31729,-0.0856 -0.11293,0.005 -0.21127,0.0432 -0.29655,0.11439 -0.0853,0.0713 -0.20358,0.22764 -0.35493,0.46909 l -0.61306,0.97868 -0.57158,-0.358 1.35289,-2.16094 0.53163,0.33258 -0.19898,0.31743 c 0.34111,-0.12606 0.65532,-0.0995 0.94111,0.0797 z"
       fill="#ffffff"
       fill-rule="evenodd"
       id="path51"
       style="fill:#ffffff;fill-opacity:0.5;stroke-width:0.0768252" /><path
       d="m 150.87627,986.84185 c -0.13291,-0.0919 -0.27811,-0.11592 -0.43637,-0.0721 -0.15749,0.0439 -0.30961,0.17179 -0.45558,0.38383 -0.15365,0.22256 -0.22356,0.41532 -0.20819,0.57826 0.0146,0.16294 0.0853,0.28809 0.21127,0.37544 0.13598,0.0937 0.28732,0.11978 0.45403,0.0784 0.16672,-0.0415 0.3219,-0.16626 0.46557,-0.37429 0.1498,-0.21735 0.21664,-0.40963 0.19974,-0.57682 -0.0169,-0.16717 -0.0937,-0.29808 -0.23047,-0.39265 z m 0.15134,-0.52301 c 0.2589,0.17922 0.39411,0.44089 0.40564,0.78515 l 0.20358,-0.29432 0.51934,0.35877 -1.29988,1.88267 c -0.17132,0.24762 -0.31959,0.41855 -0.44482,0.51282 -0.12522,0.0943 -0.24891,0.15088 -0.37106,0.16971 -0.12215,0.0189 -0.25814,0.006 -0.40871,-0.0399 -0.15058,-0.0456 -0.3196,-0.13337 -0.50782,-0.26344 -0.3557,-0.24553 -0.5662,-0.48062 -0.63073,-0.70517 -0.0645,-0.22465 -0.0323,-0.43046 0.0968,-0.61745 0.0123,-0.0184 0.0284,-0.0404 0.0484,-0.0658 l 0.5808,0.51503 c -0.0407,0.081 -0.0507,0.14851 -0.0323,0.20259 0.0261,0.0758 0.0953,0.15289 0.20819,0.23117 0.1452,0.10004 0.26889,0.15335 0.37107,0.15988 0.0691,0.005 0.13829,-0.0166 0.20743,-0.0639 0.0492,-0.0343 0.116,-0.11331 0.20205,-0.23708 l 0.21127,-0.30623 c -0.32267,0.11195 -0.60999,0.0806 -0.86275,-0.094 -0.28195,-0.19468 -0.42331,-0.46802 -0.42331,-0.82012 0.002,-0.27742 0.0983,-0.55644 0.29271,-0.83694 0.24277,-0.35162 0.51242,-0.56189 0.8105,-0.63072 0.29732,-0.0688 0.57158,-0.0164 0.82357,0.15734 z"
       fill="#ffffff"
       fill-rule="evenodd"
       id="path52"
       style="fill:#ffffff;fill-opacity:0.5;stroke-width:0.0768252" /><path
       d="m 179.1687,1030.1832 -0.9849,0.1645 0.0638,0.3836 c 0.0461,0.2762 0.0953,0.4579 0.14751,0.545 0.0515,0.087 0.12061,0.1506 0.20666,0.1906 0.086,0.04 0.18054,0.051 0.28348,0.034 0.126,-0.021 0.22433,-0.076 0.29347,-0.1635 0.0699,-0.088 0.10602,-0.1904 0.10756,-0.3075 0.002,-0.086 -0.0184,-0.2557 -0.0607,-0.5083 z m 0.47017,-0.799 0.18822,1.1248 c 0.0707,0.4262 0.0999,0.707 0.0868,0.8422 -0.0192,0.2076 -0.10448,0.3931 -0.25659,0.5564 -0.15212,0.1633 -0.36569,0.2681 -0.64226,0.3142 -0.21281,0.036 -0.39873,0.027 -0.55699,-0.026 -0.15826,-0.053 -0.28886,-0.1324 -0.39104,-0.2377 -0.10294,-0.1054 -0.17823,-0.2174 -0.22586,-0.3361 -0.0607,-0.1618 -0.11755,-0.4013 -0.17056,-0.7186 l -0.0768,-0.457 -1.3091,0.2186 -0.11755,-0.7009 z"
       fill="#ffffff"
       fill-rule="evenodd"
       id="path53"
       style="fill:#ffffff;fill-opacity:0.5;stroke-width:0.0768252" /><path
       d="m 179.40609,1033.9671 c 0.0192,0.1524 -0.004,0.3046 -0.0699,0.4566 l -0.61,-0.1328 c 0.0584,-0.122 0.0814,-0.2315 0.0691,-0.3283 -0.0115,-0.094 -0.0476,-0.1698 -0.10756,-0.2283 -0.0599,-0.059 -0.1598,-0.098 -0.29962,-0.1179 -0.13982,-0.02 -0.42484,0 -0.85506,0.052 l -0.78055,0.1 -0.086,-0.6692 2.52985,-0.3225 0.0791,0.6216 -0.35954,0.046 c 0.18285,0.085 0.3073,0.1661 0.37184,0.2441 0.0653,0.078 0.10448,0.171 0.11831,0.2791 z"
       fill="#ffffff"
       fill-rule="evenodd"
       id="path54"
       style="fill:#ffffff;fill-opacity:0.5;stroke-width:0.0768252" /><path
       d="m 179.0573,1035.9399 c -0.0161,-0.1753 -0.096,-0.3167 -0.24123,-0.4241 -0.14443,-0.1075 -0.34264,-0.1498 -0.59463,-0.1271 -0.25199,0.023 -0.43944,0.1 -0.56236,0.2316 -0.12292,0.1316 -0.1767,0.2851 -0.16056,0.4605 0.0154,0.1753 0.096,0.3163 0.24046,0.423 0.14443,0.1067 0.34418,0.1485 0.59924,0.1254 0.24891,-0.022 0.43483,-0.099 0.55775,-0.2299 0.12369,-0.1309 0.1767,-0.284 0.16133,-0.4594 z m 0.547,-0.052 c 0.0346,0.3842 -0.0615,0.7102 -0.28887,0.9783 -0.2274,0.268 -0.53086,0.4192 -0.91191,0.4536 -0.38413,0.035 -0.71371,-0.06 -0.98874,-0.2855 -0.27504,-0.2251 -0.43023,-0.5257 -0.46403,-0.9018 -0.0207,-0.2328 0.0115,-0.4595 0.0976,-0.6802 0.086,-0.2207 0.22587,-0.3952 0.41947,-0.5236 0.19283,-0.1284 0.43559,-0.2057 0.72753,-0.2321 0.22279,-0.02 0.44405,0.015 0.663,0.1065 0.21819,0.091 0.39181,0.2326 0.52011,0.4242 0.1283,0.1917 0.20359,0.412 0.22587,0.6606 z"
       fill="#ffffff"
       fill-rule="evenodd"
       id="path55"
       style="fill:#ffffff;fill-opacity:0.5;stroke-width:0.0768252" /><path
       d="m 179.28931,1038.8502 c -0.008,-0.16 -0.0768,-0.291 -0.20896,-0.3931 -0.13214,-0.1022 -0.3242,-0.1475 -0.57696,-0.136 -0.27196,0.012 -0.4671,0.059 -0.58541,0.1396 -0.17055,0.1167 -0.25199,0.2726 -0.24277,0.4677 0.007,0.155 0.0791,0.2839 0.21588,0.3866 0.13675,0.1028 0.3365,0.1482 0.59847,0.1362 0.29271,-0.013 0.5009,-0.076 0.62459,-0.187 0.12446,-0.1114 0.18208,-0.2494 0.17516,-0.414 z m 1.452,0.4963 0.0307,0.6738 -3.51552,0.1599 -0.0284,-0.6259 0.37414,-0.017 c -0.15058,-0.097 -0.26428,-0.2151 -0.34187,-0.3533 -0.0776,-0.1383 -0.11985,-0.2794 -0.126,-0.4233 -0.0138,-0.2926 0.093,-0.5486 0.3196,-0.768 0.22586,-0.2193 0.55007,-0.3386 0.97261,-0.3578 0.43175,-0.02 0.76441,0.067 0.99796,0.2598 0.23431,0.1928 0.358,0.4443 0.37183,0.7545 0.0131,0.2846 -0.0937,0.5362 -0.32113,0.7548 z"
       fill="#ffffff"
       fill-rule="evenodd"
       id="path56"
       style="fill:#ffffff;fill-opacity:0.5;stroke-width:0.0768252" /><path
       d="m 179.81787,1040.7233 v 0.6746 h -1.17158 c -0.35878,0 -0.57773,0.013 -0.65917,0.038 -0.0807,0.025 -0.14443,0.07 -0.19206,0.1357 -0.0469,0.066 -0.0707,0.1489 -0.0707,0.2497 0,0.1153 0.0323,0.2185 0.0953,0.3097 0.063,0.091 0.14135,0.1536 0.23508,0.1872 0.0937,0.034 0.32344,0.05 0.68836,0.05 h 1.07555 v 0.6746 h -2.54983 v -0.6266 h 0.38182 c -0.13598,-0.093 -0.24354,-0.2148 -0.3219,-0.366 -0.0784,-0.1512 -0.11754,-0.3109 -0.11831,-0.479 0,-0.1712 0.0376,-0.3248 0.11293,-0.4609 0.0753,-0.1361 0.18054,-0.2346 0.31652,-0.2955 0.13599,-0.061 0.32421,-0.091 0.56467,-0.091 z"
       fill="#ffffff"
       fill-rule="evenodd"
       id="path57"
       style="fill:#ffffff;fill-opacity:0.5;stroke-width:0.0768252" /><path
       d="m 179.81172,1044.8298 c -0.0131,0.3103 -0.0906,0.5539 -0.23201,0.7313 -0.14059,0.1775 -0.35032,0.3004 -0.62689,0.3688 l -0.0914,-0.6691 c 0.13367,-0.017 0.23585,-0.064 0.30653,-0.1399 0.0699,-0.076 0.10832,-0.1774 0.1137,-0.3042 0.007,-0.1675 -0.0453,-0.3042 -0.15672,-0.4087 -0.11217,-0.1052 -0.30346,-0.1636 -0.57543,-0.1752 -0.30192,-0.013 -0.5178,0.029 -0.64686,0.1253 -0.12907,0.096 -0.19744,0.2297 -0.20436,0.401 -0.006,0.1275 0.0261,0.2343 0.0953,0.3188 0.0691,0.084 0.19206,0.1475 0.36799,0.189 l -0.14059,0.6569 c -0.30116,-0.082 -0.52472,-0.2236 -0.67146,-0.4249 -0.14673,-0.202 -0.21357,-0.4671 -0.19974,-0.7943 0.0161,-0.3727 0.14674,-0.6648 0.39104,-0.8762 0.2443,-0.2115 0.57465,-0.3083 0.99028,-0.2906 0.42023,0.018 0.7429,0.1431 0.96799,0.3753 0.2251,0.2322 0.32882,0.5379 0.31268,0.9167 z"
       fill="#ffffff"
       fill-rule="evenodd"
       id="path58"
       style="fill:#ffffff;fill-opacity:0.5;stroke-width:0.0768252" /><path
       d="m 180.50776,1047.2505 -0.89809,-0.068 -0.0346,0.4594 -0.53624,-0.041 0.0346,-0.4594 -1.02485,-0.078 c -0.20742,-0.015 -0.32804,-0.021 -0.36338,-0.015 -0.0346,0.01 -0.0645,0.025 -0.0891,0.054 -0.0254,0.029 -0.0392,0.066 -0.0423,0.1114 -0.005,0.062 0.01,0.1537 0.0438,0.2751 l -0.52625,0.018 c -0.0553,-0.1621 -0.0753,-0.3419 -0.0599,-0.5393 0.009,-0.1214 0.0376,-0.229 0.0853,-0.3235 0.0484,-0.094 0.10679,-0.1621 0.17439,-0.202 0.0684,-0.041 0.15826,-0.066 0.26966,-0.075 0.0791,-0.01 0.23739,0 0.47555,0.014 l 1.10859,0.084 0.023,-0.3089 0.53624,0.041 -0.023,0.3088 0.50474,0.038 z"
       fill="#ffffff"
       fill-rule="evenodd"
       id="path59"
       style="fill:#ffffff;fill-opacity:0.5;stroke-width:0.0768252" /><path
       d="m 179.53054,1048.101 -0.0661,0.6714 -2.53676,-0.2489 0.0661,-0.6714 z m 0.9657,0.095 -0.0661,0.6715 -0.62152,-0.062 0.0661,-0.6714 z"
       fill="#ffffff"
       fill-rule="evenodd"
       id="path60"
       style="fill:#ffffff;fill-opacity:0.5;stroke-width:0.0768252" /><path
       d="m 178.75845,1050.5586 c 0.0231,-0.1744 -0.0246,-0.3296 -0.14213,-0.4663 -0.11754,-0.1367 -0.30192,-0.2213 -0.55237,-0.2543 -0.25122,-0.033 -0.45096,0 -0.60001,0.1022 -0.14904,0.1014 -0.23508,0.2397 -0.25736,0.4141 -0.0231,0.1744 0.0238,0.3295 0.14213,0.4655 0.11754,0.136 0.30346,0.2205 0.55698,0.2536 0.24738,0.033 0.44559,0 0.59463,-0.1015 0.14904,-0.1006 0.23508,-0.2389 0.25813,-0.4133 z m 0.54546,0.07 c -0.0507,0.3819 -0.21588,0.6792 -0.49706,0.8904 -0.28041,0.2121 -0.60999,0.2927 -0.98951,0.2428 -0.38259,-0.05 -0.68298,-0.2151 -0.90193,-0.4955 -0.21895,-0.2797 -0.30422,-0.6069 -0.25429,-0.9811 0.03,-0.232 0.1114,-0.4456 0.2443,-0.6422 0.13214,-0.1967 0.30654,-0.3365 0.52395,-0.4187 0.21665,-0.083 0.47017,-0.1053 0.76057,-0.068 0.22203,0.03 0.42946,0.1129 0.62306,0.2496 0.1936,0.1368 0.33188,0.3127 0.41485,0.5278 0.083,0.2151 0.10833,0.4464 0.0761,0.6945 z"
       fill="#ffffff"
       fill-rule="evenodd"
       id="path61"
       style="fill:#ffffff;fill-opacity:0.5;stroke-width:0.0768252" /><path
       d="m 178.78995,1053.8974 c -0.0261,0.1468 -0.0761,0.2758 -0.15058,0.388 -0.0745,0.1114 -0.15826,0.1913 -0.25122,0.239 -0.093,0.048 -0.1936,0.074 -0.30192,0.081 -0.10832,0.01 -0.2589,-0.01 -0.45327,-0.043 l -1.55955,-0.2774 0.11754,-0.6645 1.28145,0.2282 c 0.27119,0.048 0.44865,0.065 0.53316,0.051 0.0853,-0.014 0.15519,-0.049 0.2105,-0.1053 0.0553,-0.055 0.0914,-0.1283 0.10679,-0.2181 0.0207,-0.1153 0.008,-0.2244 -0.0392,-0.3266 -0.0469,-0.1029 -0.11908,-0.1805 -0.21742,-0.2327 -0.0976,-0.052 -0.28655,-0.103 -0.56697,-0.1529 l -1.13701,-0.2028 0.11754,-0.6638 2.51065,0.4464 -0.10986,0.6169 -0.36876,-0.065 c 0.24507,0.269 0.33726,0.5701 0.27811,0.9027 z"
       fill="#ffffff"
       fill-rule="evenodd"
       id="path62"
       style="fill:#ffffff;fill-opacity:0.5;stroke-width:0.0768252" /><path
       d="m 139.1681,1102.7967 0.0853,1.3875 0.88041,-0.3834 z m -0.66454,-0.6061 0.68835,-0.3004 2.69734,2.665 -0.7091,0.3081 -0.60077,-0.61 -1.2899,0.5616 0.053,0.8489 -0.69142,0.3012 z"
       fill="#ffffff"
       fill-rule="evenodd"
       id="path63"
       style="fill:#ffffff;fill-opacity:0.5;stroke-width:0.0768252" /><path
       d="m 142.43624,1101.3739 c 0.13368,-0.066 0.26736,-0.1022 0.4018,-0.1091 0.13368,-0.01 0.24815,0.014 0.34111,0.061 0.0937,0.047 0.17516,0.1122 0.2443,0.1959 0.0684,0.084 0.14673,0.2136 0.23355,0.3903 l 0.70141,1.4213 -0.60538,0.298 -0.57542,-1.1669 c -0.12215,-0.2466 -0.21358,-0.4003 -0.27504,-0.4602 -0.0615,-0.059 -0.13137,-0.095 -0.20973,-0.1068 -0.0776,-0.011 -0.15749,0 -0.23969,0.044 -0.10449,0.052 -0.18438,0.1267 -0.23893,0.2251 -0.0553,0.098 -0.0745,0.2028 -0.0592,0.3127 0.0161,0.1098 0.0868,0.2927 0.21281,0.5477 l 0.51089,1.0356 -0.60462,0.2989 -1.12779,-2.2863 0.56159,-0.2774 0.16594,0.3357 c 0.0722,-0.3564 0.25967,-0.6099 0.56236,-0.759 z"
       fill="#ffffff"
       fill-rule="evenodd"
       id="path64"
       style="fill:#ffffff;fill-opacity:0.5;stroke-width:0.0768252" /><path
       d="m 145.62219,1101.2594 c -0.0615,0.067 -0.16518,0.1629 -0.31038,0.2874 -0.1452,0.1252 -0.23355,0.2182 -0.26581,0.2796 -0.0476,0.097 -0.0484,0.1875 -0.002,0.272 0.0453,0.083 0.11524,0.1375 0.2105,0.1644 0.0945,0.026 0.18976,0.014 0.28502,-0.038 0.10679,-0.058 0.18976,-0.1491 0.24815,-0.2728 0.0422,-0.092 0.0538,-0.1836 0.0338,-0.2727 -0.0115,-0.059 -0.0568,-0.1598 -0.13444,-0.3011 z m -1.02255,-1.0163 c 0.26351,-0.1445 0.47786,-0.2205 0.64073,-0.229 0.16363,-0.01 0.29808,0.021 0.40333,0.089 0.10525,0.068 0.2274,0.2297 0.36799,0.4871 l 0.37107,0.6945 c 0.10755,0.1967 0.19667,0.3365 0.26658,0.4195 0.0699,0.083 0.1598,0.1636 0.27043,0.242 l -0.58618,0.3196 c -0.0369,-0.031 -0.0876,-0.078 -0.15212,-0.1437 -0.0292,-0.029 -0.0484,-0.049 -0.0592,-0.058 -0.0476,0.1536 -0.11524,0.2865 -0.20359,0.3979 -0.0883,0.1122 -0.19744,0.2044 -0.32881,0.2758 -0.22971,0.1253 -0.44559,0.1621 -0.64687,0.1099 -0.20051,-0.053 -0.35339,-0.1744 -0.45788,-0.3657 -0.0691,-0.126 -0.10064,-0.2558 -0.0945,-0.3872 0.007,-0.1321 0.0499,-0.2543 0.12983,-0.3664 0.0799,-0.1122 0.21204,-0.2444 0.39565,-0.3957 0.24815,-0.2028 0.41332,-0.3557 0.49553,-0.4594 l -0.0323,-0.059 c -0.0622,-0.1137 -0.13444,-0.179 -0.21665,-0.1966 -0.083,-0.018 -0.20205,0.015 -0.358,0.1006 -0.10525,0.058 -0.1767,0.1237 -0.21281,0.1967 -0.0361,0.074 -0.0446,0.1728 -0.0238,0.2965 l -0.59078,0.1967 c -0.0576,-0.2497 -0.0407,-0.4663 0.0499,-0.6507 0.0907,-0.1844 0.28118,-0.3565 0.57234,-0.5147 z"
       fill="#ffffff"
       fill-rule="evenodd"
       id="path65"
       style="fill:#ffffff;fill-opacity:0.5;stroke-width:0.0768252" /><path
       d="m 145.61527,1098.6259 0.58234,-0.3419 1.77927,3.0369 -0.58157,0.3411 z"
       fill="#ffffff"
       fill-rule="evenodd"
       id="path66"
       style="fill:#ffffff;fill-opacity:0.5;stroke-width:0.0768252" /><path
       d="m 146.97278,1098.9662 0.60768,-0.3818 1.47889,1.2092 -0.45788,-1.8499 0.59155,-0.3711 0.54162,2.5567 0.0999,0.4618 c 0.0292,0.1575 0.0415,0.2835 0.0376,0.3787 -0.004,0.094 -0.0215,0.1813 -0.0546,0.2597 -0.033,0.078 -0.086,0.1559 -0.15749,0.2328 -0.0714,0.078 -0.16133,0.1498 -0.26966,0.2182 -0.10985,0.068 -0.22509,0.1252 -0.34494,0.1682 l -0.33188,-0.4156 c 0.10064,-0.038 0.18668,-0.08 0.2589,-0.1253 0.13214,-0.084 0.20666,-0.1843 0.22125,-0.3019 0.0146,-0.1183 7.7e-4,-0.2481 -0.0407,-0.3903 z"
       fill="#ffffff"
       fill-rule="evenodd"
       id="path67"
       style="fill:#ffffff;fill-opacity:0.5;stroke-width:0.0768252" /><path
       d="m 150.21634,1096.8036 c 0.28809,-0.1975 0.53393,-0.2973 0.73829,-0.2996 0.20435,0 0.39565,0.071 0.57388,0.2181 l -0.45865,0.4564 c -0.0784,-0.066 -0.16363,-0.1 -0.25659,-0.1006 -0.0922,0 -0.19667,0.039 -0.31268,0.1183 -0.14674,0.1006 -0.23739,0.1928 -0.27273,0.2773 -0.023,0.058 -0.0184,0.1106 0.0138,0.1567 0.0269,0.039 0.0684,0.061 0.12445,0.063 0.0753,0 0.28426,-0.064 0.6269,-0.1997 0.34264,-0.136 0.60615,-0.1952 0.79053,-0.1783 0.18438,0.02 0.33649,0.1183 0.45788,0.295 0.13214,0.1929 0.16517,0.4134 0.0991,0.6623 -0.0661,0.2497 -0.25736,0.4817 -0.57235,0.6983 -0.28656,0.1959 -0.55314,0.2935 -0.79975,0.2912 -0.24661,0 -0.46402,-0.084 -0.65224,-0.2489 l 0.50013,-0.4671 c 0.0976,0.091 0.20282,0.1406 0.31345,0.1475 0.11139,0.01 0.23201,-0.035 0.36261,-0.1252 0.14443,-0.098 0.23432,-0.199 0.27043,-0.3012 0.0238,-0.071 0.0146,-0.1367 -0.0284,-0.199 -0.0284,-0.042 -0.0661,-0.068 -0.1114,-0.078 -0.0461,-0.01 -0.12445,0.01 -0.23662,0.054 -0.51626,0.209 -0.86275,0.3127 -1.03944,0.3135 -0.24431,0 -0.43483,-0.1007 -0.57389,-0.3027 -0.12445,-0.1821 -0.15749,-0.3842 -0.0983,-0.607 0.0584,-0.2227 0.23892,-0.4379 0.54161,-0.6445 z"
       fill="#ffffff"
       fill-rule="evenodd"
       id="path68"
       style="fill:#ffffff;fill-opacity:0.5;stroke-width:0.0768252" /><path
       d="m 151.68523,1095.8425 0.5447,-0.398 1.50347,2.059 -0.54469,0.3979 z m -0.57234,-0.7836 0.54469,-0.398 0.36799,0.5048 -0.54469,0.3979 z"
       fill="#ffffff"
       fill-rule="evenodd"
       id="path69"
       style="fill:#ffffff;fill-opacity:0.5;stroke-width:0.0768252" /><path
       d="m 153.44914,1094.4481 c 0.27504,-0.2143 0.51473,-0.3288 0.71832,-0.3434 0.20359,-0.014 0.39872,0.046 0.58618,0.1829 l -0.42946,0.4832 c -0.083,-0.062 -0.17055,-0.09 -0.26274,-0.084 -0.0922,0 -0.19437,0.051 -0.305,0.1367 -0.14059,0.1091 -0.22586,0.2075 -0.25582,0.2935 -0.0184,0.059 -0.0108,0.1106 0.0238,0.1552 0.0292,0.038 0.0722,0.056 0.12753,0.055 0.0761,0 0.28041,-0.081 0.61383,-0.2374 0.33419,-0.156 0.59386,-0.2312 0.77901,-0.2259 0.18438,0.01 0.34264,0.098 0.47478,0.2666 0.1429,0.1844 0.18976,0.4026 0.13906,0.6554 -0.0515,0.2527 -0.22741,0.4962 -0.52933,0.7313 -0.27426,0.2136 -0.5347,0.3265 -0.78054,0.3396 -0.24661,0.013 -0.46864,-0.056 -0.66608,-0.209 l 0.47094,-0.497 c 0.10295,0.086 0.2105,0.129 0.3219,0.1283 0.11139,0 0.22894,-0.049 0.35416,-0.1468 0.13752,-0.1068 0.22203,-0.2128 0.25199,-0.3173 0.0192,-0.071 0.005,-0.1375 -0.0407,-0.1966 -0.0315,-0.041 -0.0699,-0.064 -0.116,-0.071 -0.0461,0 -0.12369,0.018 -0.23278,0.068 -0.50321,0.2397 -0.84278,0.3649 -1.01871,0.3756 -0.24353,0.015 -0.44021,-0.074 -0.59078,-0.2665 -0.13598,-0.1744 -0.18054,-0.3749 -0.13598,-0.6008 0.0453,-0.2259 0.2128,-0.451 0.50243,-0.6761 z"
       fill="#ffffff"
       fill-rule="evenodd"
       id="path70"
       style="fill:#ffffff;fill-opacity:0.5;stroke-width:0.0768252" /><g
       clip-path="url(#clip1)"
       id="g75"
       transform="matrix(0.07682524,0,0,0.07682524,41.964173,967.3085)"
       style="fill:#001493;fill-opacity:1"><g
         clip-path="url(#clip2)"
         id="g74"
         style="fill:#001493;fill-opacity:1"><g
           clip-path="url(#clip3)"
           id="g73"
           style="fill:#001493;fill-opacity:1"><path
             d="m 47.8803,222.295 c 2.3814,4.589 6.9387,7.647 12.0885,8.111 h 56.8122 v 25.25 H 59.9688 c -14.3919,-0.261 -27.5576,-8.161 -34.561,-20.736 -6.7091,-12.138 -6.1255,-26.996 1.515,-38.57 L 59.7479,139.538 38.096,126.913 90.9316,112.773 105.072,165.609 82.0626,152.384 49.1113,209.512 c -2.8122,3.678 -3.2895,8.636 -1.231,12.783 z"
             fill="#004a78"
             transform="matrix(1.0033,0,0,1,454,272)"
             id="path71"
             style="fill:#001493;fill-opacity:1" /><path
             d="M 92.5413,91.9732 118.959,42.641 c 6.93,-12.4677 20.108,-20.1637 34.372,-20.0738 13.868,0.2844 26.436,8.2334 32.635,20.6419 l 32.825,56.8129 21.652,-12.6254 -14.14,52.9934 -52.709,-14.14 22.977,-13.288 -33.109,-57.1595 c -1.798,-4.2688 -5.856,-7.1536 -10.478,-7.4487 -4.868,0.2411 -9.274,2.9564 -11.679,7.1962 l -26.449,49.332 z"
             fill="#004a78"
             transform="matrix(1.0033,0,0,1,454,272)"
             id="path72"
             style="fill:#001493;fill-opacity:1" /><path
             d="m 276.456,237.445 c -6.901,11.579 -19.507,18.54 -32.983,18.211 H 176.75 v 25.25 l -38.79,-39.453 38.79,-38.38 v 27.333 h 65.871 c 4.734,0.316 9.245,-2.05 11.678,-6.123 2.357,-4.31 2.212,-9.555 -0.379,-13.729 l -28.879,-49.238 22.314,-12.972 28.912,49.206 c 1.63,2.867 2.912,5.919 3.819,9.09 l 0.536,2.083 c 2.387,9.752 0.893,20.05 -4.166,28.722 z"
             fill="#004a78"
             transform="matrix(1.0033,0,0,1,454,272)"
             id="path73"
             style="fill:#001493;fill-opacity:1" /></g></g></g><g
       clip-path="url(#clip4)"
       id="g82"
       transform="matrix(0.07682524,0,0,0.07682524,41.964173,967.3085)"><g
         clip-path="url(#clip5)"
         id="g81"><g
           clip-path="url(#clip6)"
           id="g80"><path
             d="m 63.3333,44.3333 h -19 V 259.667 H 259.667 v -19 H 63.3333 Z"
             fill="#004a78"
             transform="translate(1053,255)"
             id="path75"
             style="fill:#001493;fill-opacity:1" /><path
             d="m 224.833,202.667 h 28.5 v 19 h -28.5 z"
             fill="#004a78"
             transform="translate(1053,255)"
             id="path76" /><path
             d="m 199.5,171 h 31.667 v 19 H 199.5 Z"
             fill="#004a78"
             transform="translate(1053,255)"
             id="path77" /><path
             d="m 152,139.333 h 63.333 v 19 H 152 Z"
             fill="#004a78"
             transform="translate(1053,255)"
             id="path78" /><path
             d="m 117.167,107.667 h 107.666 v 19 H 117.167 Z"
             fill="#004a78"
             transform="translate(1053,255)"
             id="path79" /><path
             d="M 82.3333,76 H 145.667 V 95 H 82.3333 Z"
             fill="#004a78"
             transform="translate(1053,255)"
             id="path80" /></g></g></g><g
       clip-path="url(#clip7)"
       id="g86"
       transform="matrix(0.07682524,0,0,0.07682524,41.964173,967.3085)"
       style="fill:#001493;fill-opacity:1"><g
         clip-path="url(#clip8)"
         id="g85"
         style="fill:#001493;fill-opacity:1"><g
           clip-path="url(#clip9)"
           id="g84"
           style="fill:#001493;fill-opacity:1"><path
             d="m 205.54,7.6735 c -36.723,0 -66.138,29.5978 -66.138,66.1383 v 73.6292 h 18.453 V 73.8118 c 0,-26.4918 21.376,-47.868 47.868,-47.868 26.492,0 47.868,21.3762 47.868,47.868 v 50.7912 h 18.453 V 73.8118 C 271.679,37.0886 242.264,7.6735 205.54,7.6735 Z"
             fill="#004a78"
             fill-rule="evenodd"
             transform="matrix(1.00001,0,0,1,172.688,850.663)"
             id="path82"
             style="fill:#001493;fill-opacity:1" /><path
             d="M 168.634,136.113 H 14.0681 c -0.5481,0 -0.9135,0.366 -0.9135,0.914 v 119.305 c 0,0.548 0.3654,0.913 0.9135,0.913 H 168.634 c 0.549,0 0.914,-0.365 0.914,-0.913 V 137.027 c 0,-0.366 -0.365,-0.914 -0.914,-0.914 z m -97.1973,95.006 8.4043,-24.117 v 0 c -4.933,-2.741 -8.4043,-7.856 -8.4043,-14.068 0,-8.77 7.1254,-15.895 15.8951,-15.895 8.7697,0 15.8952,7.125 15.8952,15.895 0,5.846 -3.2887,10.962 -8.039,13.703 -0.1827,0 -0.1827,0.182 -0.3654,0.182 h 0.3654 l 8.404,24.117 H 71.4367 Z"
             fill="#004a78"
             fill-rule="evenodd"
             transform="matrix(1.00001,0,0,1,172.688,850.663)"
             id="path83"
             style="fill:#001493;fill-opacity:1" /><path
             d="m 73.8118,188.732 v 0.182 h -0.3654 c 0.1827,0 0.1827,-0.182 0.3654,-0.182 z"
             fill="#004a78"
             fill-rule="evenodd"
             transform="matrix(1.00001,0,0,1,178.105,846.096)"
             id="path84"
             style="fill:#001493;fill-opacity:1" /></g></g></g><g
       clip-path="url(#clip10)"
       id="g94"
       transform="matrix(0.07682524,0,0,0.07682524,41.964173,967.3085)"
       style="fill:#001493;fill-opacity:1"><g
         clip-path="url(#clip11)"
         id="g93"
         style="fill:#001493;fill-opacity:1"><g
           clip-path="url(#clip12)"
           id="g92"
           style="fill:#001493;fill-opacity:1"><path
             d="m 142.969,212.865 h 19.062 v 25.416 h -19.062 z"
             fill="#004a78"
             transform="translate(462,1383)"
             id="path86"
             style="fill:#001493;fill-opacity:1" /><path
             d="m 142.969,250.99 h 19.062 v 19.062 h -19.062 z"
             fill="#004a78"
             transform="translate(462,1383)"
             id="path87"
             style="fill:#001493;fill-opacity:1" /><path
             d="m 174.74,250.99 h 92.135 v 19.062 H 174.74 Z"
             fill="#004a78"
             transform="translate(462,1383)"
             id="path88"
             style="fill:#001493;fill-opacity:1" /><path
             d="m 38.125,250.99 h 92.135 v 19.062 H 38.125 Z"
             fill="#004a78"
             transform="translate(462,1383)"
             id="path89"
             style="fill:#001493;fill-opacity:1" /><path
             d="M 242.793,162.031 H 62.2073 c -6.2818,0 -11.374,5.092 -11.374,11.374 v 28.086 c 0,6.281 5.0922,11.374 11.374,11.374 H 242.793 c 6.281,0 11.374,-5.093 11.374,-11.374 v -28.086 c 0,-6.282 -5.093,-11.374 -11.374,-11.374 z M 82.6041,193.802 c -3.5094,0 -6.3541,-2.845 -6.3541,-6.354 0,-3.51 2.8447,-6.354 6.3541,-6.354 3.5094,0 6.3542,2.844 6.3542,6.354 0,3.509 -2.8448,6.354 -6.3542,6.354 z m 31.7709,0 c -3.509,0 -6.354,-2.845 -6.354,-6.354 0,-3.51 2.845,-6.354 6.354,-6.354 3.509,0 6.354,2.844 6.354,6.354 0,3.509 -2.845,6.354 -6.354,6.354 z m 31.771,0 c -3.51,0 -6.354,-2.845 -6.354,-6.354 0,-3.51 2.844,-6.354 6.354,-6.354 3.509,0 6.354,2.844 6.354,6.354 0,3.509 -2.845,6.354 -6.354,6.354 z"
             fill="#004a78"
             transform="translate(462,1383)"
             id="path90"
             style="fill:#001493;fill-opacity:1" /><path
             d="M 242.793,98.4895 H 62.2073 c -6.2818,0 -11.374,5.0925 -11.374,11.3745 v 28.085 c 0,6.282 5.0922,11.374 11.374,11.374 H 242.793 c 6.281,0 11.374,-5.092 11.374,-11.374 v -28.085 c 0,-6.282 -5.093,-11.3745 -11.374,-11.3745 z M 82.6041,130.26 c -3.5094,0 -6.3541,-2.844 -6.3541,-6.354 0,-3.509 2.8447,-6.354 6.3541,-6.354 3.5094,0 6.3542,2.845 6.3542,6.354 0,3.51 -2.8448,6.354 -6.3542,6.354 z m 31.7709,0 c -3.509,0 -6.354,-2.844 -6.354,-6.354 0,-3.509 2.845,-6.354 6.354,-6.354 3.509,0 6.354,2.845 6.354,6.354 0,3.51 -2.845,6.354 -6.354,6.354 z m 31.771,0 c -3.51,0 -6.354,-2.844 -6.354,-6.354 0,-3.509 2.844,-6.354 6.354,-6.354 3.509,0 6.354,2.845 6.354,6.354 0,3.51 -2.845,6.354 -6.354,6.354 z"
             fill="#004a78"
             transform="translate(462,1383)"
             id="path91"
             style="fill:#001493;fill-opacity:1" /><path
             d="M 242.793,34.9479 H 62.2073 c -6.2818,0 -11.374,5.0922 -11.374,11.374 v 28.0854 c 0,6.2817 5.0922,11.3739 11.374,11.3739 H 242.793 c 6.281,0 11.374,-5.0922 11.374,-11.3739 V 46.3219 c 0,-6.2818 -5.093,-11.374 -11.374,-11.374 z M 82.6041,66.7187 c -3.5094,0 -6.3541,-2.8447 -6.3541,-6.3541 0,-3.5094 2.8447,-6.3542 6.3541,-6.3542 3.5094,0 6.3542,2.8448 6.3542,6.3542 0,3.5094 -2.8448,6.3541 -6.3542,6.3541 z m 31.7709,0 c -3.509,0 -6.354,-2.8447 -6.354,-6.3541 0,-3.5094 2.845,-6.3542 6.354,-6.3542 3.509,0 6.354,2.8448 6.354,6.3542 0,3.5094 -2.845,6.3541 -6.354,6.3541 z m 31.771,0 c -3.51,0 -6.354,-2.8447 -6.354,-6.3541 0,-3.5094 2.844,-6.3542 6.354,-6.3542 3.509,0 6.354,2.8448 6.354,6.3542 0,3.5094 -2.845,6.3541 -6.354,6.3541 z"
             fill="#004a78"
             transform="translate(462,1383)"
             id="path92"
             style="fill:#001493;fill-opacity:1" /></g></g></g><g
       clip-path="url(#clip13)"
       id="g100"
       transform="matrix(0.07682524,0,0,0.07682524,41.964173,967.3085)"
       style="fill:#001493;fill-opacity:1"><g
         clip-path="url(#clip14)"
         id="g99"
         style="fill:#001493;fill-opacity:1"><g
           clip-path="url(#clip15)"
           id="g98"
           style="fill:#001493;fill-opacity:1"><path
             d="m 168.385,22.2396 c 0,5.2639 -4.267,9.5312 -9.531,9.5312 -5.264,0 -9.531,-4.2673 -9.531,-9.5312 0,-5.264 4.267,-9.5313 9.531,-9.5313 5.264,0 9.531,4.2673 9.531,9.5313 z"
             fill="#004a78"
             transform="translate(1360,850)"
             id="path94"
             style="fill:#001493;fill-opacity:1" /><path
             d="m 184.271,50.8333 c 0,5.264 -4.268,9.5313 -9.531,9.5313 -5.264,0 -9.532,-4.2673 -9.532,-9.5313 0,-5.2639 4.268,-9.5312 9.532,-9.5312 5.263,0 9.531,4.2673 9.531,9.5312 z"
             fill="#004a78"
             transform="translate(1360,850)"
             id="path95"
             style="fill:#001493;fill-opacity:1" /><path
             d="m 149.323,44.4792 c 0,5.2639 -4.267,9.5312 -9.531,9.5312 -5.264,0 -9.532,-4.2673 -9.532,-9.5312 0,-5.264 4.268,-9.5313 9.532,-9.5313 5.264,0 9.531,4.2673 9.531,9.5313 z"
             fill="#004a78"
             transform="translate(1360,850)"
             id="path96"
             style="fill:#001493;fill-opacity:1" /><path
             d="m 158.854,79.4271 c 0,7.0186 -5.69,12.7083 -12.708,12.7083 -7.019,0 -12.709,-5.6897 -12.709,-12.7083 0,-7.0187 5.69,-12.7084 12.709,-12.7084 7.018,0 12.708,5.6897 12.708,12.7084 z"
             fill="#004a78"
             transform="translate(1360,850)"
             id="path97"
             style="fill:#001493;fill-opacity:1" /><path
             d="M 214.453,265.604 177.917,183 v -55.917 c 0,-11.437 9.213,-16.203 9.531,-16.521 3.177,-1.588 4.448,-5.401 2.859,-8.578 -1.271,-2.2236 -3.495,-3.4945 -6.036,-3.4945 v 0 h -63.542 v 0 c -2.542,0 -4.765,1.2709 -6.036,3.4945 -1.589,3.177 -0.318,6.99 2.859,8.578 0,0 9.531,5.084 9.531,16.521 V 183 l -36.5362,82.604 c -2.5416,6.037 -1.9062,12.708 1.5886,18.109 3.4948,5.402 9.5316,8.579 15.8856,8.579 h 88.958 c 6.354,0 12.391,-3.177 15.886,-8.579 3.494,-5.401 4.13,-12.072 1.588,-18.109 z M 165.208,127.083 v 12.709 h -25.416 v -12.709 c 0,-6.672 -1.907,-11.755 -4.131,-15.885 h 33.995 c -2.541,4.13 -4.448,9.213 -4.448,15.885 z"
             fill="#004a78"
             transform="translate(1360,850)"
             id="path98"
             style="fill:#001493;fill-opacity:1" /></g></g></g><g
       clip-path="url(#clip16)"
       id="g106"
       transform="matrix(0.07682524,0,0,0.07682524,41.964173,967.3085)"
       style="fill:#001493;fill-opacity:1"><g
         clip-path="url(#clip17)"
         id="g105"
         style="fill:#001493;fill-opacity:1"><g
           clip-path="url(#clip18)"
           id="g104"
           style="fill:#001493;fill-opacity:1"><path
             d="M 63.125,44.1875 H 44.1875 V 258.812 H 258.812 V 239.875 H 63.125 Z"
             fill="#004a78"
             transform="translate(1037,1394)"
             id="path100"
             style="fill:#001493;fill-opacity:1" /><path
             d="M 82.0625,110.469 H 116.781 V 220.937 H 82.0625 Z"
             fill="#004a78"
             transform="translate(1037,1394)"
             id="path101"
             style="fill:#001493;fill-opacity:1" /><path
             d="m 129.406,44.1875 h 34.719 V 220.937 h -34.719 z"
             fill="#004a78"
             transform="translate(1037,1394)"
             id="path102"
             style="fill:#001493;fill-opacity:1" /><path
             d="m 176.75,110.469 h 34.719 V 220.937 H 176.75 Z"
             fill="#004a78"
             transform="translate(1037,1394)"
             id="path103"
             style="fill:#001493;fill-opacity:1" /><path
             d="m 224.094,164.125 h 34.718 v 56.812 h -34.718 z"
             fill="#004a78"
             transform="translate(1037,1394)"
             id="path104"
             style="fill:#001493;fill-opacity:1" /></g></g></g><text
       xml:space="preserve"
       style="font-style:normal;font-weight:normal;font-size:22.4312px;line-height:1.25;font-family:sans-serif;fill:#001493;fill-opacity:1;stroke:none;stroke-width:0.56078"
       x="100.63146"
       y="1051.7654"
       id="text6744-0-8-8"><tspan
         sodipodi:role="line"
         id="tspan6742-3-6-9"
         style="fill:#001493;fill-opacity:1;stroke-width:0.56078"
         x="100.63146"
         y="1051.7654">h</tspan></text><text
       xml:space="preserve"
       style="font-style:normal;font-weight:normal;font-size:10.4679px;line-height:1.25;font-family:sans-serif;fill:#001493;fill-opacity:1;stroke:none;stroke-width:0.56078"
       x="110.79169"
       y="1036.6038"
       id="text6744-5-2-6-7"><tspan
         sodipodi:role="line"
         id="tspan6742-2-4-1-8"
         style="font-size:10.4679px;fill:#001493;fill-opacity:1;stroke-width:0.56078"
         x="110.79169"
         y="1036.6038">5</tspan></text><text
       xml:space="preserve"
       style="font-style:normal;font-weight:normal;font-size:8.22478px;line-height:1.25;font-family:sans-serif;fill:#001493;fill-opacity:1;stroke:none;stroke-width:0.56078"
       x="113.77097"
       y="1051.6931"
       id="text6744-5-9-4-2-9"><tspan
         sodipodi:role="line"
         id="tspan6742-2-0-7-2-4"
         style="font-size:8.22478px;fill:#001493;fill-opacity:1;stroke-width:0.56078"
         x="113.77097"
         y="1051.6931">tbx</tspan></text><text
       xml:space="preserve"
       style="font-style:normal;font-weight:normal;font-size:5.95258px;line-height:1.25;font-family:sans-serif;fill:#001493;fill-opacity:1;stroke:none;stroke-width:0.558053"
       x="113.99583"
       y="1039.8822"
       id="text6744-5-9-1-8-9-9"
       transform="scale(0.99513726,1.0048865)"><tspan
         sodipodi:role="line"
         id="tspan6742-2-0-9-3-6-5"
         style="font-size:5.95258px;fill:#001493;fill-opacity:1;stroke-width:0.558053"
         x="113.99583"
         y="1039.8822">RDM</tspan></text><text
       xml:space="preserve"
       style="font-style:normal;font-weight:normal;font-size:5.26226px;line-height:1.25;font-family:sans-serif;letter-spacing:0px;word-spacing:0px;fill:#000000;fill-opacity:1;stroke:none;stroke-width:0.162273"
       x="181.90355"
       y="983.97766"
       id="text1016-3-3"
       transform="scale(0.98552199,1.0146907)"><tspan
         sodipodi:role="line"
         id="tspan1014-7-5"
         x="181.90355"
         y="983.97766"
         style="font-size:5.26226px;fill:#ffffff;fill-opacity:1;stroke-width:0.162273">convention</tspan></text><text
       xml:space="preserve"
       style="font-style:normal;font-weight:normal;font-size:5.26226px;line-height:1.25;font-family:sans-serif;letter-spacing:0px;word-spacing:0px;fill:#000000;fill-opacity:1;stroke:none;stroke-width:0.162273"
       x="190.95253"
       y="1033.8232"
       id="text1016-3-3-5"
       transform="scale(0.98552199,1.0146907)"><tspan
         sodipodi:role="line"
         id="tspan1014-7-5-4"
         x="190.95253"
         y="1033.8232"
         style="font-size:5.26226px;fill:#ffffff;fill-opacity:1;stroke-width:0.162273">HDF5 wrapper</tspan></text><text
       xml:space="preserve"
       style="font-style:normal;font-weight:normal;font-size:5.26226px;line-height:1.25;font-family:sans-serif;letter-spacing:0px;word-spacing:0px;fill:#000000;fill-opacity:1;stroke:none;stroke-width:0.162273"
       x="198.98557"
       y="1024.5171"
       id="text1016-3-3-5-5-2"
       transform="scale(0.98552199,1.0146907)"><tspan
         sodipodi:role="line"
         id="tspan1014-7-5-4-6-8"
         x="198.98557"
         y="1024.5171"
         style="font-size:5.26226px;fill:#000000;fill-opacity:1;stroke-width:0.162273">HDF5</tspan></text><text
       xml:space="preserve"
       style="font-style:normal;font-weight:normal;font-size:5.26226px;line-height:1.25;font-family:sans-serif;letter-spacing:0px;word-spacing:0px;fill:#000000;fill-opacity:1;stroke:none;stroke-width:0.162273"
       x="169.89497"
       y="973.16412"
       id="text1016-3-3-5-5-2-8"
       transform="scale(0.98552199,1.0146907)"><tspan
         sodipodi:role="line"
         id="tspan1014-7-5-4-6-8-9"
         x="169.89497"
         y="973.16412"
         style="font-size:5.26226px;fill:#000000;fill-opacity:1;stroke-width:0.162273">convention</tspan></text><text
       xml:space="preserve"
       style="font-style:normal;font-weight:normal;font-size:5.26226px;line-height:1.25;font-family:sans-serif;letter-spacing:0px;word-spacing:0px;fill:#000000;fill-opacity:1;stroke:none;stroke-width:0.162273"
       x="197.23309"
       y="1056.1938"
       id="text1016-3-3-5-5-2-9"
       transform="scale(0.98552199,1.0146907)"><tspan
         sodipodi:role="line"
         id="tspan1014-7-5-4-6-8-8"
         x="197.23309"
         y="1056.1938"
         style="font-size:5.26226px;fill:#000000;fill-opacity:1;stroke-width:0.162273">xarray</tspan></text><text
       xml:space="preserve"
       style="font-style:normal;font-weight:normal;font-size:5.26226px;line-height:1.25;font-family:sans-serif;letter-spacing:0px;word-spacing:0px;fill:#000000;fill-opacity:1;stroke:none;stroke-width:0.162273"
       x="181.10066"
       y="1084.3788"
       id="text1016-3-3-5-5-2-9-5"
       transform="scale(0.98552199,1.0146907)"><tspan
         sodipodi:role="line"
         x="181.10066"
         y="1084.3788"
         style="font-size:5.26226px;fill:#000000;fill-opacity:1;stroke-width:0.162273"
         id="tspan3">python</tspan></text><text
       xml:space="preserve"
       style="font-style:normal;font-weight:normal;font-size:5.26226px;line-height:1.25;font-family:sans-serif;letter-spacing:0px;word-spacing:0px;fill:#000000;fill-opacity:1;stroke:none;stroke-width:0.162273"
       x="149.96634"
       y="1101.6295"
       id="text1016-3-3-5-5-2-9-5-2"
       transform="scale(0.98552199,1.0146907)"><tspan
         sodipodi:role="line"
         x="149.96634"
         y="1101.6295"
         style="font-size:5.26226px;fill:#000000;fill-opacity:1;stroke-width:0.162273"
         id="tspan3-3">jupyter notebook</tspan></text><text
       xml:space="preserve"
       style="font-style:normal;font-weight:normal;font-size:5.26226px;line-height:1.25;font-family:sans-serif;letter-spacing:0px;word-spacing:0px;fill:#000000;fill-opacity:1;stroke:none;stroke-width:0.162273"
       x="37.285915"
       y="1089.9657"
       id="text1016-3-3-5-5-2-9-4"
       transform="scale(0.98552199,1.0146907)"><tspan
         sodipodi:role="line"
         id="tspan1014-7-5-4-6-8-8-2"
         x="37.285915"
         y="1089.9657"
         style="font-size:5.26226px;fill:#000000;fill-opacity:1;stroke-width:0.162273">pymongo</tspan></text><text
       xml:space="preserve"
       style="font-style:normal;font-weight:normal;font-size:5.26226px;line-height:1.25;font-family:sans-serif;letter-spacing:0px;word-spacing:0px;fill:#000000;fill-opacity:1;stroke:none;stroke-width:0.162273"
       x="17.547636"
       y="1033.2825"
       id="text1016-3-3-5-5-2-9-4-95"
       transform="scale(0.98552199,1.0146907)"><tspan
         sodipodi:role="line"
         x="17.547636"
         y="1033.2825"
         style="font-size:5.26226px;fill:#000000;fill-opacity:1;stroke-width:0.162273"
         id="tspan1">open-</tspan><tspan
         sodipodi:role="line"
         x="17.547636"
         y="1039.8604"
         style="font-size:5.26226px;fill:#000000;fill-opacity:1;stroke-width:0.162273"
         id="tspan2">source</tspan></text><text
       xml:space="preserve"
       style="font-style:normal;font-weight:normal;font-size:5.26226px;line-height:1.25;font-family:sans-serif;letter-spacing:0px;word-spacing:0px;fill:#000000;fill-opacity:1;stroke:none;stroke-width:0.162273"
       x="79.764069"
       y="1107.9324"
       id="text1016-3-3-5-5-2-9-4-9"
       transform="scale(0.98552199,1.0146907)"><tspan
         sodipodi:role="line"
         id="tspan1014-7-5-4-6-8-8-2-7"
         x="79.764069"
         y="1107.9324"
         style="font-size:5.26226px;fill:#000000;fill-opacity:1;stroke-width:0.162273">HDF5 database</tspan></text></g></svg>
